<?xml version="1.0" encoding="iso-8859-1"?>
<!-- Generator: Adobe Illustrator 18.0.0, SVG Export Plug-In . SVG Version: 6.00 Build 0)  -->
<!DOCTYPE svg PUBLIC "-//W3C//DTD SVG 1.1//EN" "http://www.w3.org/Graphics/SVG/1.1/DTD/svg11.dtd">
<svg version="1.1" id="Capa_1" xmlns="http://www.w3.org/2000/svg" xmlns:xlink="http://www.w3.org/1999/xlink" x="0px" y="0px"
	 viewBox="0 0 330 330" style="enable-background:new 0 0 330 330;" xml:space="preserve">
<g>
	<path d="M315,0.001H15c-8.284,0-15,6.716-15,15v299.998c0,8.284,6.716,15,15,15h300c8.284,0,15-6.716,15-15V15.001
		C330,6.717,323.284,0.001,315,0.001z M300,299.999H30V30.001h270V299.999z"/>
	<path d="M75,180.001l75,0L149.999,255c0,8.284,6.716,15,15,15c8.283,0,15-6.716,15-15L180,180.001l75,0.001c8.283,0,15-6.716,15-15
		c0-8.284-6.716-15-15-15l-75-0.001V75c0-8.284-6.716-15-15-15c-8.283,0-15,6.716-15,15v75.001l-75,0c-8.283,0-15,6.716-15,15
		C60,173.285,66.716,180.001,75,180.001z"/>
</g>
<g>
</g>
<g>
</g>
<g>
</g>
<g>
</g>
<g>
</g>
<g>
</g>
<g>
</g>
<g>
</g>
<g>
</g>
<g>
</g>
<g>
</g>
<g>
</g>
<g>
</g>
<g>
</g>
<g>
</g>
</svg>
