<?xml version="1.0" encoding="iso-8859-1"?>
<!-- Generator: Adobe Illustrator 18.0.0, SVG Export Plug-In . SVG Version: 6.00 Build 0)  -->
<!DOCTYPE svg PUBLIC "-//W3C//DTD SVG 1.1//EN" "http://www.w3.org/Graphics/SVG/1.1/DTD/svg11.dtd">
<svg version="1.1" id="Capa_1" xmlns="http://www.w3.org/2000/svg" xmlns:xlink="http://www.w3.org/1999/xlink" x="0px" y="0px"
	 viewBox="0 0 185.092 185.092" style="enable-background:new 0 0 185.092 185.092;" xml:space="preserve">
<g>
	<path d="M73.244,0c-4.971,0-9,4.029-9,9v41.404L16.477,2.636c-3.516-3.515-9.213-3.515-12.729,0c-3.515,3.515-3.515,9.213,0,12.728
		l47.768,47.768H11.112c-4.971,0-9,4.029-9,9s4.029,9,9,9h62.132c4.971,0,9-4.029,9-9V9C82.244,4.029,78.215,0,73.244,0z"/>
	<path d="M111.848,81.132h63.132c4.971,0,9-4.029,9-9s-4.029-9-9-9h-41.404l47.768-47.768c3.515-3.515,3.515-9.213,0-12.728
		c-3.516-3.515-9.213-3.515-12.729,0l-47.768,47.768V10c0-4.971-4.029-9-9-9s-9,4.029-9,9v62.132
		C102.848,77.103,106.877,81.132,111.848,81.132z"/>
	<path d="M133.576,121.96h40.404c4.971,0,9-4.029,9-9s-4.029-9-9-9h-62.132c-4.971,0-9,4.029-9,9v63.132c0,4.971,4.029,9,9,9
		s9-4.029,9-9v-41.404l47.768,47.768c1.758,1.757,4.061,2.636,6.364,2.636s4.606-0.879,6.364-2.636
		c3.515-3.515,3.515-9.213,0-12.728L133.576,121.96z"/>
	<path d="M73.244,103.96H10.112c-4.971,0-9,4.029-9,9s4.029,9,9,9h41.404L3.748,169.728c-3.515,3.515-3.515,9.213,0,12.728
		c1.758,1.757,4.061,2.636,6.364,2.636s4.606-0.879,6.364-2.636l47.768-47.768v40.404c0,4.971,4.029,9,9,9s9-4.029,9-9V112.96
		C82.244,107.989,78.215,103.96,73.244,103.96z"/>
</g>
<g>
</g>
<g>
</g>
<g>
</g>
<g>
</g>
<g>
</g>
<g>
</g>
<g>
</g>
<g>
</g>
<g>
</g>
<g>
</g>
<g>
</g>
<g>
</g>
<g>
</g>
<g>
</g>
<g>
</g>
</svg>
